<svg xmlns="http://www.w3.org/2000/svg" version="1.1" xmlns:xlink="http://www.w3.org/1999/xlink" viewBox="0 0 200 200"><rect width="200" height="200" fill="url('#gradient')"></rect><defs><linearGradient id="gradient" gradientTransform="rotate(230 0.5 0.5)"><stop offset="0%" stop-color="#b3422a"></stop><stop offset="100%" stop-color="#3c3d3e"></stop></linearGradient></defs><g><g fill="#7f0202" transform="matrix(2.894346978557505,0,0,2.894346978557505,13.0834643728668,121.42051066868952)" stroke="#f71412" stroke-width="0.7"><path d="M9.98 0L9.15-2.66L4.45-2.66L3.63 0L-0.03 0L5.19-14.22L8.41-14.22L13.66 0L9.98 0ZM6.80-10.23L5.27-5.30L8.33-5.30L6.80-10.23ZM14.13-5.36L14.13-5.36Q14.13-7.87 15.21-9.32Q16.30-10.76 18.24-10.76L18.24-10.76Q19.66-10.76 20.63-9.65L20.63-9.65L20.63-15L23.93-15L23.93 0L20.97 0L20.80-1.13Q19.79 0.20 18.22 0.20L18.22 0.20Q16.34 0.20 15.23-1.25Q14.13-2.70 14.13-5.36ZM17.43-5.76L17.42-5.16Q17.42-2.34 19.06-2.34L19.06-2.34Q20.16-2.34 20.63-3.26L20.63-3.26L20.63-7.29Q20.18-8.22 19.08-8.22L19.08-8.22Q17.56-8.22 17.43-5.76L17.43-5.76ZM37.82-14.22L37.82 0L34.41 0L29.38-8.85L29.38 0L25.95 0L25.95-14.22L29.38-14.22L34.40-5.37L34.40-14.22L37.82-14.22ZM46.23 0L46.13-1.14Q45.09 0.20 43.31 0.20L43.31 0.20Q41.57 0.20 40.68-0.82Q39.79-1.83 39.79-3.72L39.79-3.72L39.79-10.57L43.08-10.57L43.08-3.70Q43.08-2.34 44.39-2.34L44.39-2.34Q45.53-2.34 46.01-3.15L46.01-3.15L46.01-10.57L49.32-10.57L49.32 0L46.23 0ZM54.59-15L54.59 0L51.29 0L51.29-15L54.59-15ZM60.09-15L60.09 0L56.79 0L56.79-15L60.09-15Z"></path></g></g></svg>